<svg clip-rule="evenodd" fill-rule="evenodd" stroke-linejoin="round" stroke-miterlimit="1.41421" viewBox="0 0 1024 1024" xmlns="http://www.w3.org/2000/svg"><path d="m-39.105-19.869h1116.71v1638.01h-1116.71z" fill="#2a3132"/><path d="m46.813 68.045c-2.723 3.333-6.987 5.505-11.813 5.503-4.827.002-9.09-2.17-11.815-5.505-.447-.546-1.253-.629-1.8-.181-.547.446-.629 1.254-.182 1.802v-.001c3.205 3.924 8.195 6.445 13.797 6.447 5.603-.002 10.593-2.523 13.795-6.447.447-.547.365-1.354-.182-1.801-.546-.448-1.353-.365-1.8.183zm-18.413-4.295c1.048 0 1.899-1.9 1.899-4.25 0-2.348-.851-4.25-1.899-4.25-1.049 0-1.9 1.902-1.9 4.25 0 2.35.852 4.25 1.9 4.25zm40.179.063c-.75-.619-1.67-.948-2.643-.991.611-2.467.942-5.045.942-7.7 0-11.777-6.39-22.052-15.886-27.572 4.783-4.959 6.057-10.696 6.007-14.872-.002-3.74-.882-6.321-.922-6.441-.281-.816-1.125-1.303-1.97-1.138-.152.037-4.259.834-8.475 4.04-1.025.774-2.048 1.72-3.016 2.817-1.523-7.213-6.365-11.408-6.479-11.53-.651-.566-1.624-.566-2.273 0-.113.122-4.957 4.316-6.481 11.53-.967-1.099-1.989-2.043-3.015-2.817-4.212-3.206-8.321-4.002-8.473-4.04-.846-.165-1.688.321-1.968 1.137-.039.122-.923 2.702-.925 6.44-.05 4.18 1.205 9.922 5.992 14.882-9.489 5.522-15.872 15.793-15.873 27.564 0 2.656.331 5.233.943 7.7-.973.044-1.893.372-2.643.991-.796.653-1.424 1.73-1.421 2.976v1.424c-.003 1.245.625 2.322 1.421 2.974.653.539 1.437.856 2.271.96-1.072 4.713-.603 9.762 3.138 13.28 2.876-2.706 3.813-6.318 3.607-9.986 5.847 7.059 14.679 11.557 24.563 11.559 9.884-.002 18.716-4.501 24.563-11.562-.206 3.669.73 7.282 3.608 9.988 3.738-3.518 4.21-8.566 3.137-13.28.834-.104 1.618-.421 2.271-.96.796-.651 1.425-1.729 1.421-2.974v-1.424c.004-1.245-.625-2.322-1.421-2.975zm-25.529-46.486c.857-1.557 1.876-2.843 2.962-3.914l1.461 5.452 5.457-1.462c-.718 2.779-2.218 5.756-5.192 8.495-1.943-.848-3.986-1.51-6.108-1.959.86-2.322 1.306-4.54 1.42-6.612zm-12.048-5.661 4 4 4.002-4.002c.382 1.379.623 2.891.617 4.522-.004 2.168-.42 4.576-1.498 7.212-1.027-.1-2.069-.155-3.123-.155-1.052 0-2.09.055-3.116.154-1.079-2.635-1.501-5.043-1.505-7.209 0-1.638.245-3.146.623-4.522zm-13.93 5.737 5.459 1.462 1.464-5.465c1.078 1.07 2.098 2.345 2.953 3.89.113 2.083.557 4.312 1.426 6.648-2.124.449-4.167 1.111-6.111 1.959-2.975-2.738-4.474-5.715-5.191-8.494zm-5.974 50.81c0 .785-.765 1.421-1.708 1.421h-5.121c-.944 0-1.708-.636-1.708-1.421v-1.424c0-.786.764-1.423 1.708-1.423h5.121c.943 0 1.708.637 1.708 1.423zm46.663 2.971c-5.047 7.135-13.352 11.798-22.761 11.816-9.41-.018-17.715-4.681-22.761-11.815.795-.651 1.423-1.728 1.42-2.972v-1.424c.003-1.246-.625-2.323-1.422-2.976-.8-.661-1.792-1.004-2.839-1.008.012-.534.05-1.05.1-1.557.964.36 1.969.663 2.991.92 3.112.759 6.366 1.061 8.853 1.063.943 0 1.707-.765 1.707-1.707s-.764-1.707-1.707-1.707c-2.208.002-5.271-.285-8.042-.965-1.127-.268-2.195-.616-3.145-1.017.278-.944.627-1.838 1.036-2.688.901.526 1.866.974 2.855 1.355 2.425.921 5.002 1.444 7.175 1.603.042.003.083.005.124.005.888 0 1.635-.688 1.7-1.586.068-.939-.642-1.757-1.581-1.823l-.001-.002c-1.811-.128-4.142-.6-6.199-1.386-.84-.315-1.624-.689-2.319-1.098 6.66-9.312 20.483-13.325 21.921-24.968.045 0 .09-.004.136-.004s.09.003.136.004c1.438 11.643 15.262 15.656 21.921 24.968-.695.408-1.479.783-2.317 1.098-2.06.787-4.39 1.258-6.202 1.386-.941.066-1.649.885-1.582 1.825.064.898.816 1.586 1.703 1.586.04 0 .081-.002.122-.005 2.17-.158 4.75-.681 7.173-1.603.99-.382 1.956-.83 2.857-1.356.408.851.757 1.745 1.035 2.688-.949.4-2.019.75-3.146 1.018-2.772.682-5.833.965-8.04.965-.944 0-1.708.765-1.708 1.707 0 .943.764 1.707 1.708 1.707 2.486-.002 5.74-.303 8.854-1.063 1.021-.256 2.025-.56 2.99-.919.05.507.088 1.022.1 1.557-1.048.004-2.038.347-2.84 1.008-.797.652-1.425 1.729-1.422 2.976v1.424c-.005 1.242.621 2.318 1.417 2.97zm9.678-2.971c0 .785-.765 1.421-1.707 1.421h-5.122c-.942 0-1.707-.636-1.707-1.421v-1.424c0-.786.765-1.423 1.707-1.423h5.122c.942 0 1.707.637 1.707 1.423zm-25.675-6.741c1.048 0 1.736.378 1.736-1.972 0-2.348-.942-1.227-1.989-1.227-1.049 0-1.81-1.121-1.81 1.227-.001 2.35 1.014 1.972 2.063 1.972z" fill="#548ec1" fill-rule="nonzero" transform="matrix(9.76097 0 0 9.76097 181.439 68.5239)"/></svg>